<svg width="181" height="43" viewBox="0 0 181 43" fill="none" xmlns="http://www.w3.org/2000/svg">
<path d="M44.1523 29H39.9482V7.99414H54.6553V12.1982H44.1523V16.4023H50.4512V20.6064H44.1523V29ZM61.1152 9.04883C61.1152 9.41992 61.042 9.7666 60.8955 10.0889C60.7588 10.4111 60.5684 10.6943 60.3242 10.9385C60.0801 11.1729 59.792 11.3633 59.46 11.5098C59.1377 11.6465 58.791 11.7148 58.4199 11.7148C58.0488 11.7148 57.6973 11.6465 57.3652 11.5098C57.043 11.3633 56.7598 11.1729 56.5156 10.9385C56.2812 10.6943 56.0908 10.4111 55.9443 10.0889C55.8076 9.7666 55.7393 9.41992 55.7393 9.04883C55.7393 8.6875 55.8076 8.3457 55.9443 8.02344C56.0908 7.69141 56.2812 7.4082 56.5156 7.17383C56.7598 6.92969 57.043 6.73926 57.3652 6.60254C57.6973 6.45605 58.0488 6.38281 58.4199 6.38281C58.791 6.38281 59.1377 6.45605 59.46 6.60254C59.792 6.73926 60.0801 6.92969 60.3242 7.17383C60.5684 7.4082 60.7588 7.69141 60.8955 8.02344C61.042 8.3457 61.1152 8.6875 61.1152 9.04883ZM60.4268 29H56.3984V13.3115H60.4268V29ZM67.5166 29H63.4883V7.07129H67.5166V29ZM90.5293 29H86.5449V19.0391C86.5449 18.7656 86.4912 18.5068 86.3838 18.2627C86.2861 18.0186 86.1445 17.8037 85.959 17.6182C85.7734 17.4326 85.5586 17.291 85.3145 17.1934C85.0703 17.0859 84.8115 17.0322 84.5381 17.0322C84.2646 17.0322 84.0059 17.0859 83.7617 17.1934C83.5273 17.291 83.3174 17.4326 83.1318 17.6182C82.9561 17.8037 82.8145 18.0186 82.707 18.2627C82.6094 18.5068 82.5605 18.7656 82.5605 19.0391V29H78.5615V19.0391C78.5615 18.7656 78.5078 18.5068 78.4004 18.2627C78.3027 18.0186 78.1611 17.8037 77.9756 17.6182C77.79 17.4326 77.5752 17.291 77.3311 17.1934C77.0869 17.0859 76.8281 17.0322 76.5547 17.0322C76.2812 17.0322 76.0225 17.0859 75.7783 17.1934C75.5439 17.291 75.334 17.4326 75.1484 17.6182C74.9727 17.8037 74.8311 18.0186 74.7236 18.2627C74.626 18.5068 74.5771 18.7656 74.5771 19.0391V29H70.5781V13.3115H71.5449L72.6289 14.5127C73.1855 14.0439 73.7959 13.6826 74.46 13.4287C75.1338 13.165 75.832 13.0332 76.5547 13.0332C77.2871 13.0332 78 13.1699 78.6934 13.4434C79.3965 13.7168 80.0117 14.1904 80.5391 14.8643C80.7832 14.5322 81.0615 14.249 81.374 14.0146C81.6865 13.7803 82.0137 13.5898 82.3555 13.4434C82.707 13.2969 83.0684 13.1943 83.4395 13.1357C83.8105 13.0674 84.1768 13.0332 84.5381 13.0332C85.3682 13.0332 86.1445 13.1895 86.8672 13.502C87.5996 13.8145 88.2344 14.2441 88.7715 14.791C89.3184 15.3281 89.748 15.9629 90.0605 16.6953C90.373 17.4277 90.5293 18.209 90.5293 19.0391V29ZM102.072 29H92.9316V25.0156H102.072C102.346 25.0156 102.58 24.918 102.775 24.7227C102.971 24.5273 103.068 24.293 103.068 24.0195C103.068 23.7363 102.971 23.5508 102.775 23.4629C102.58 23.375 102.346 23.3311 102.072 23.3311H97.9121C97.2188 23.3311 96.5693 23.1992 95.9639 22.9355C95.3584 22.6719 94.8311 22.3154 94.3818 21.8662C93.9326 21.4072 93.5762 20.875 93.3125 20.2695C93.0586 19.6641 92.9316 19.0146 92.9316 18.3213C92.9316 17.6279 93.0586 16.9785 93.3125 16.373C93.5762 15.7676 93.9326 15.2402 94.3818 14.791C94.8311 14.3418 95.3584 13.9902 95.9639 13.7363C96.5693 13.4727 97.2188 13.3408 97.9121 13.3408H106.013V17.3252H97.9121C97.6387 17.3252 97.4043 17.4229 97.209 17.6182C97.0137 17.8135 96.916 18.0479 96.916 18.3213C96.916 18.6045 97.0137 18.8486 97.209 19.0537C97.4043 19.249 97.6387 19.3467 97.9121 19.3467H102.072C102.756 19.3467 103.4 19.4639 104.006 19.6982C104.611 19.9229 105.139 20.2402 105.588 20.6504C106.037 21.0605 106.394 21.5537 106.657 22.1299C106.921 22.7061 107.053 23.3359 107.053 24.0195C107.053 24.7129 106.921 25.3623 106.657 25.9678C106.394 26.5635 106.037 27.0908 105.588 27.5498C105.139 27.999 104.611 28.3555 104.006 28.6191C103.4 28.873 102.756 29 102.072 29ZM124.323 29H109.616V7.99414H113.82V24.7959H124.323V29ZM140.876 29H139.909L138.356 26.8467C137.976 27.1885 137.57 27.5107 137.141 27.8135C136.721 28.1064 136.276 28.3652 135.808 28.5898C135.339 28.8047 134.855 28.9756 134.357 29.1025C133.869 29.2295 133.371 29.293 132.863 29.293C131.76 29.293 130.72 29.1074 129.743 28.7363C128.776 28.3652 127.927 27.8281 127.194 27.125C126.472 26.4121 125.9 25.543 125.48 24.5176C125.061 23.4922 124.851 22.3252 124.851 21.0166C124.851 19.7959 125.061 18.6777 125.48 17.6621C125.9 16.6367 126.472 15.7578 127.194 15.0254C127.927 14.293 128.776 13.7266 129.743 13.3262C130.72 12.916 131.76 12.7109 132.863 12.7109C133.371 12.7109 133.874 12.7744 134.372 12.9014C134.87 13.0283 135.354 13.2041 135.822 13.4287C136.291 13.6533 136.735 13.917 137.155 14.2197C137.585 14.5225 137.985 14.8496 138.356 15.2012L139.909 13.3408H140.876V29ZM136.848 21.0166C136.848 20.4697 136.74 19.9424 136.525 19.4346C136.32 18.917 136.037 18.4629 135.676 18.0723C135.314 17.6719 134.89 17.3545 134.401 17.1201C133.923 16.876 133.41 16.7539 132.863 16.7539C132.316 16.7539 131.799 16.8467 131.311 17.0322C130.832 17.2178 130.412 17.4912 130.051 17.8525C129.699 18.2139 129.421 18.6631 129.216 19.2002C129.011 19.7275 128.908 20.333 128.908 21.0166C128.908 21.7002 129.011 22.3105 129.216 22.8477C129.421 23.375 129.699 23.8193 130.051 24.1807C130.412 24.542 130.832 24.8154 131.311 25.001C131.799 25.1865 132.316 25.2793 132.863 25.2793C133.41 25.2793 133.923 25.1621 134.401 24.9277C134.89 24.6836 135.314 24.3662 135.676 23.9756C136.037 23.5752 136.32 23.1211 136.525 22.6133C136.74 22.0957 136.848 21.5635 136.848 21.0166ZM147.937 29H143.938V13.3115H144.904L146.223 14.835C146.867 14.249 147.595 13.7998 148.405 13.4873C149.226 13.165 150.08 13.0039 150.969 13.0039C151.926 13.0039 152.829 13.1895 153.679 13.5605C154.528 13.9219 155.271 14.4248 155.905 15.0693C156.54 15.7041 157.038 16.4512 157.399 17.3105C157.771 18.1602 157.956 19.0684 157.956 20.0352V29H153.957V20.0352C153.957 19.625 153.879 19.2393 153.723 18.8779C153.566 18.5068 153.352 18.1846 153.078 17.9111C152.805 17.6377 152.487 17.4229 152.126 17.2666C151.765 17.1104 151.379 17.0322 150.969 17.0322C150.549 17.0322 150.153 17.1104 149.782 17.2666C149.411 17.4229 149.089 17.6377 148.815 17.9111C148.542 18.1846 148.327 18.5068 148.171 18.8779C148.015 19.2393 147.937 19.625 147.937 20.0352V29ZM175.974 29H175.007L173.454 26.8467C173.073 27.1885 172.668 27.5107 172.238 27.8135C171.818 28.1064 171.374 28.3652 170.905 28.5898C170.437 28.8047 169.953 28.9756 169.455 29.1025C168.967 29.2295 168.469 29.293 167.961 29.293C166.857 29.293 165.817 29.0879 164.841 28.6777C163.874 28.2578 163.024 27.6816 162.292 26.9492C161.569 26.207 160.998 25.333 160.578 24.3271C160.158 23.3115 159.948 22.208 159.948 21.0166C159.948 19.835 160.158 18.7363 160.578 17.7207C160.998 16.7051 161.569 15.8262 162.292 15.084C163.024 14.3418 163.874 13.7607 164.841 13.3408C165.817 12.9209 166.857 12.7109 167.961 12.7109C168.312 12.7109 168.674 12.7402 169.045 12.7988C169.426 12.8574 169.792 12.9551 170.144 13.0918C170.505 13.2188 170.842 13.3896 171.154 13.6045C171.467 13.8193 171.73 14.083 171.945 14.3955V7.07129H175.974V29ZM171.945 21.0166C171.945 20.4697 171.838 19.9424 171.623 19.4346C171.418 18.917 171.135 18.4629 170.773 18.0723C170.412 17.6719 169.987 17.3545 169.499 17.1201C169.021 16.876 168.508 16.7539 167.961 16.7539C167.414 16.7539 166.896 16.8516 166.408 17.0469C165.93 17.2422 165.51 17.5254 165.148 17.8965C164.797 18.2578 164.519 18.7021 164.313 19.2295C164.108 19.7568 164.006 20.3525 164.006 21.0166C164.006 21.5928 164.108 22.1396 164.313 22.6572C164.519 23.1748 164.797 23.6289 165.148 24.0195C165.51 24.4102 165.93 24.7178 166.408 24.9424C166.896 25.167 167.414 25.2793 167.961 25.2793C168.508 25.2793 169.021 25.1621 169.499 24.9277C169.987 24.6836 170.412 24.3662 170.773 23.9756C171.135 23.5752 171.418 23.1211 171.623 22.6133C171.838 22.0957 171.945 21.5635 171.945 21.0166Z" fill="white"/>
<path d="M0 2H26.4255L54 43L0 33.4333V2Z" fill="#053BA3"/>
</svg>
